<svg xmlns="http://www.w3.org/2000/svg" width="97.252" height="30.603" viewBox="0 0 97.252 30.603">
  <g id="ic_logo_blue" transform="translate(0 -0.182)">
    <g id="Group_72" data-name="Group 72" transform="translate(0 0.182)">
      <path id="Path_39" data-name="Path 39" d="M2888.478,818.575s-.084-.371.506-.2,9.087,2.95,9.087,2.95,1.113.4,1.332-.556-.253-4.889,0-5.209c.048-.061.393.2.954.7,2.209,1.963,7.761,7.659,7.761,7.659s.556.4,0,.674-8.362,8.075-8.362,8.075-.438.607-.354-.422c.04-.487.009-1.483,0-2.6-.01-1.13,0-2.36,0-2.36s-.4-.776-1.113-.489-9.458,3.3-9.458,3.3-.4.236-.354-.253S2888.478,818.575,2888.478,818.575Z" transform="translate(-2877.031 -808.893)" fill="#14367c"/>
      <path id="Path_40" data-name="Path 40" d="M2829.727,784.473c1.011.27,9.475,3.034,9.475,3.034a.255.255,0,0,0,.4-.236c.034-.438,0-5.091,0-5.091l-4.889-4.889a.49.49,0,0,0-.809,0c-.4.506-15.307,14.9-15.307,14.9l15.711,15.476,5.26-5.057s.1-4.72.034-5.226-.4-.3-.4-.3h0l-9.07,3.2s-1.483.169-1.584-.742,0-14.06,0-14.06S2828.715,784.2,2829.727,784.473Z" transform="translate(-2818.6 -777.067)" fill="#14367c"/>
    </g>
    <g id="Group_29716" data-name="Group 29716" transform="translate(34.252 6.069)">
      <text id="DOVETAIL" transform="translate(0 10)" fill="#14367c" font-size="11" font-family="ArialMT, Arial" letter-spacing="0.12em"><tspan x="0" y="0">DOVETAIL</tspan></text>
      <text id="First_Choice_in_Logistics_Software" data-name="First Choice in Logistics Software" transform="translate(0 17.457)" fill="#14367c" font-size="4" font-family="ArialMT, Arial" letter-spacing="0.02em"><tspan x="0" y="0">First Choice in Logistics Software</tspan></text>
    </g>
  </g>
</svg>
