<svg xmlns="http://www.w3.org/2000/svg" width="196" height="57.182" viewBox="0 0 196 57.182">
  <g id="ic_logo_white" transform="translate(0 -0.182)">
    <g id="Group_72" data-name="Group 72" transform="translate(0 0.182)">
      <path id="Path_39" data-name="Path 39" d="M2888.482,821.2s-.157-.693.945-.378,16.978,5.512,16.978,5.512,2.079.756,2.489-1.039-.473-9.135,0-9.733c.09-.114.733.38,1.783,1.313,4.127,3.667,14.5,14.311,14.5,14.311s1.039.756,0,1.26-15.624,15.088-15.624,15.088-.819,1.134-.662-.788c.074-.911.017-2.772,0-4.851-.018-2.112,0-4.41,0-4.41s-.756-1.449-2.079-.913-17.671,6.174-17.671,6.174-.756.441-.661-.472S2888.482,821.2,2888.482,821.2Z" transform="translate(-2867.094 -803.112)" fill="#fff"/>
      <path id="Path_40" data-name="Path 40" d="M2839.39,790.906c1.89.5,17.7,5.67,17.7,5.67a.477.477,0,0,0,.756-.441c.063-.819,0-9.513,0-9.513l-9.135-9.135a.915.915,0,0,0-1.512,0c-.756.945-28.6,27.846-28.6,27.846l29.357,28.917,9.828-9.45s.189-8.82.063-9.765-.756-.567-.756-.567h0l-16.947,5.985s-2.772.315-2.961-1.386,0-26.271,0-26.271S2837.5,790.4,2839.39,790.906Z" transform="translate(-2818.6 -777.067)" fill="#fff"/>
    </g>
    <g id="Group_29716" data-name="Group 29716" transform="translate(0 0.493)">
      <text id="DOVETAIL" transform="translate(64 31.689)" fill="#fff" font-size="23" font-family="ArialMT, Arial" letter-spacing="0.12em"><tspan x="0" y="0">DOVETAIL</tspan></text>
      <text id="First_Choice_in_Logistics_Software" data-name="First Choice in Logistics Software" transform="translate(64 43.834)" fill="#fff" font-size="8.5" font-family="ArialMT, Arial" letter-spacing="0.02em"><tspan x="0" y="0">First Choice in Logistics Software</tspan></text>
    </g>
  </g>
</svg>
