<svg id="_5517297b3f7102b461f34294b698ee4e" data-name="5517297b3f7102b461f34294b698ee4e" xmlns="http://www.w3.org/2000/svg" width="32" height="32" viewBox="0 0 32 32">
  <path id="Path_15239" data-name="Path 15239" d="M16,0A16,16,0,1,1,0,16,16,16,0,0,1,16,0Z" fill="#13377f"/>
  <path id="Path_16039" data-name="Path 16039" d="M4.6,5.336V15.6a4,4,0,0,0,3.737,3.991L8.6,19.6h7.063A2.4,2.4,0,0,1,13.4,21.2H7.8A4.8,4.8,0,0,1,3,16.4V7.6A2.4,2.4,0,0,1,4.6,5.336ZM16.6,2A2.4,2.4,0,0,1,19,4.4V15.6A2.4,2.4,0,0,1,16.6,18h-8a2.4,2.4,0,0,1-2.4-2.4V4.4A2.4,2.4,0,0,1,8.6,2Zm0,1.6h-8a.8.8,0,0,0-.8.8V15.6a.8.8,0,0,0,.8.8h8a.8.8,0,0,0,.8-.8V4.4A.8.8,0,0,0,16.6,3.6Z" transform="translate(5 4.4)" fill="#fff"/>
</svg>
