<svg id="_5517297b3f7102b461f34294b698ee4e" data-name="5517297b3f7102b461f34294b698ee4e" xmlns="http://www.w3.org/2000/svg" width="32" height="32" viewBox="0 0 32 32">
  <path id="Path_15239" data-name="Path 15239" d="M16,0A16,16,0,1,1,0,16,16,16,0,0,1,16,0Z" fill="#13377f"/>
  <g id="Group_29667" data-name="Group 29667" transform="translate(6.001 5.202)">
    <path id="Path_16037" data-name="Path 16037" d="M16,7.849c0-.017,0-.033,0-.05A3,3,0,0,0,11.8,5.049,4.2,4.2,0,0,0,4.026,6.768,4.2,4.2,0,0,0,5.2,15H7a.6.6,0,0,0,0-1.2H5.2a3,3,0,0,1-.5-5.953A.658.658,0,0,0,5.2,7.2a3,3,0,0,1,5.794-1.09.6.6,0,0,0,.927.256A1.74,1.74,0,0,1,13,6a1.8,1.8,0,0,1,1.8,1.8,1.9,1.9,0,0,1-.06.46A.6.6,0,0,0,15.4,9a2.4,2.4,0,1,1-.006,4.8H13A.6.6,0,0,0,13,15h2.4A3.6,3.6,0,0,0,16,7.849Z" transform="translate(0)" fill="#fff"/>
    <path id="Path_16038" data-name="Path 16038" d="M15.775,21.375,15,22.151V17.6a.6.6,0,0,0-1.2,0v4.551l-.776-.776a.6.6,0,1,0-.848.848l1.8,1.8c.005.005.013.007.018.012a.591.591,0,0,0,.176.118h0a.6.6,0,0,0,.652-.13l1.8-1.8a.6.6,0,1,0-.848-.848Z" transform="translate(-4.401 -5.602)" fill="#fff"/>
  </g>
</svg>
