<svg id="_5517297b3f7102b461f34294b698ee4e" data-name="5517297b3f7102b461f34294b698ee4e" xmlns="http://www.w3.org/2000/svg" width="32" height="32" viewBox="0 0 32 32">
  <path id="Path_15239" data-name="Path 15239" d="M16,0A16,16,0,1,1,0,16,16,16,0,0,1,16,0Z" fill="#13377f"/>
  <g id="Group_29666" data-name="Group 29666" transform="translate(6 5.2)">
    <rect id="Rectangle_17721" data-name="Rectangle 17721" width="2.4" height="1.2" rx="0.6" transform="translate(4 9.564)" fill="#fff"/>
    <path id="Path_16035" data-name="Path 16035" d="M17.05,19.6H13.6V17.2H6.4v2.4H2.95A1.95,1.95,0,0,1,1,17.65v-5.7A1.95,1.95,0,0,1,2.95,10h14.1A1.95,1.95,0,0,1,19,11.95v5.7A1.95,1.95,0,0,1,17.05,19.6ZM14.8,18.4h2.25a.75.75,0,0,0,.75-.75v-5.7a.75.75,0,0,0-.75-.75H2.95a.75.75,0,0,0-.75.75v5.7a.75.75,0,0,0,.75.75H5.2V17a1,1,0,0,1,1-1H13.8a1,1,0,0,1,1,1Z" transform="translate(0 -2.8)" fill="#fff"/>
    <path id="Path_16036" data-name="Path 16036" d="M16.16,18.6H9.44A1.44,1.44,0,0,1,8,17.16V14.2a1,1,0,0,1,1-1H16.6a1,1,0,0,1,1,1V17.16A1.44,1.44,0,0,1,16.16,18.6ZM9.2,14.4v2.76a.246.246,0,0,0,.24.24h6.72a.246.246,0,0,0,.24-.24V14.4Zm8.4-6H8V4.44A1.44,1.44,0,0,1,9.44,3h6.72A1.44,1.44,0,0,1,17.6,4.44ZM9.2,7.2h7.2V4.44a.24.24,0,0,0-.24-.24H9.44a.24.24,0,0,0-.24.24Z" transform="translate(-2.8)" fill="#fff"/>
  </g>
</svg>
