<svg id="_5517297b3f7102b461f34294b698ee4e" data-name="5517297b3f7102b461f34294b698ee4e" xmlns="http://www.w3.org/2000/svg" width="32" height="32" viewBox="0 0 32 32">
  <path id="Path_15239" data-name="Path 15239" d="M16,0A16,16,0,1,1,0,16,16,16,0,0,1,16,0Z" fill="#13377f"/>
  <g id="_647622ff1cdc128cb997c039768f68e8" data-name="647622ff1cdc128cb997c039768f68e8" transform="translate(8.653 8.652)">
    <path id="Path_15235" data-name="Path 15235" d="M2.388,5.144a5.444,5.444,0,0,1,4.96-3.307A5.526,5.526,0,0,1,12.767,6.43H14.6A7.342,7.342,0,0,0,7.348,0,7.054,7.054,0,0,0,1.01,3.766L0,2.756V6.43H3.674Z" fill="#fff"/>
    <path id="Path_15236" data-name="Path 15236" d="M14.7,9H10.93l1.378,1.286a5.476,5.476,0,0,1-5.052,3.307A5.6,5.6,0,0,1,1.837,9H0a7.412,7.412,0,0,0,7.256,6.43,7.492,7.492,0,0,0,6.43-3.766l1.01,1.01Z" transform="translate(0 -0.733)" fill="#fff"/>
  </g>
</svg>
